<mxfile host="app.diagrams.net" agent="Mozilla/5.0 (Windows NT 10.0; Win64; x64) AppleWebKit/537.36 (KHTML, like Gecko) Chrome/135.0.0.0 Safari/537.36" version="26.2.14">
  <diagram id="Y8eSTyjnNwDpUIpfLyvQ" name="Page-1">
    <mxGraphModel dx="815" dy="425" grid="0" gridSize="10" guides="1" tooltips="1" connect="1" arrows="1" fold="1" page="1" pageScale="1" pageWidth="850" pageHeight="1100" math="0" shadow="0">
      <root>
        <mxCell id="0" />
        <mxCell id="1" parent="0" />
        <mxCell id="6" value="" style="endArrow=none;dashed=1;html=1;rounded=0;strokeWidth=1;fontFamily=Comic Sans MS;fontSize=8;" parent="1" edge="1">
          <mxGeometry width="50" height="50" relative="1" as="geometry">
            <mxPoint x="340" y="251" as="sourcePoint" />
            <mxPoint x="340" y="80" as="targetPoint" />
          </mxGeometry>
        </mxCell>
        <mxCell id="7" value="" style="endArrow=none;dashed=1;html=1;rounded=0;strokeWidth=1;fontFamily=Comic Sans MS;fontSize=8;" parent="1" edge="1">
          <mxGeometry width="50" height="50" relative="1" as="geometry">
            <mxPoint x="440" y="251" as="sourcePoint" />
            <mxPoint x="440" y="80" as="targetPoint" />
          </mxGeometry>
        </mxCell>
        <mxCell id="8" value="Participant 1" style="text;html=1;align=center;verticalAlign=middle;resizable=0;points=[];autosize=1;strokeColor=none;fillColor=none;fontFamily=Comic Sans MS;fontStyle=0;fontSize=9;" parent="1" vertex="1">
          <mxGeometry x="165" y="108" width="71" height="23" as="geometry" />
        </mxCell>
        <mxCell id="9" value="Participant&amp;nbsp;&amp;nbsp;2" style="text;html=1;align=center;verticalAlign=middle;resizable=0;points=[];autosize=1;strokeColor=none;fillColor=none;fontFamily=Comic Sans MS;fontStyle=0;fontSize=9;" parent="1" vertex="1">
          <mxGeometry x="163" y="148" width="75" height="23" as="geometry" />
        </mxCell>
        <mxCell id="10" value="Participant&amp;nbsp;3" style="text;html=1;align=center;verticalAlign=middle;resizable=0;points=[];autosize=1;strokeColor=none;fillColor=none;fontFamily=Comic Sans MS;fontStyle=0;fontSize=9;" parent="1" vertex="1">
          <mxGeometry x="164" y="186" width="72" height="23" as="geometry" />
        </mxCell>
        <mxCell id="11" value="Participant&amp;nbsp;&amp;nbsp;4" style="text;html=1;align=center;verticalAlign=middle;resizable=0;points=[];autosize=1;strokeColor=none;fillColor=none;fontFamily=Comic Sans MS;fontStyle=0;fontSize=9;" parent="1" vertex="1">
          <mxGeometry x="163" y="226" width="75" height="23" as="geometry" />
        </mxCell>
        <mxCell id="66" value="" style="endArrow=none;html=1;rounded=0;strokeWidth=2;startArrow=none;startFill=0;strokeColor=default;fontFamily=Comic Sans MS;fontSize=11;" parent="1" edge="1">
          <mxGeometry width="50" height="50" relative="1" as="geometry">
            <mxPoint x="240" y="120" as="sourcePoint" />
            <mxPoint x="540" y="120" as="targetPoint" />
          </mxGeometry>
        </mxCell>
        <mxCell id="67" value="" style="endArrow=none;html=1;rounded=0;strokeWidth=2;startArrow=none;startFill=0;strokeColor=default;fontFamily=Comic Sans MS;fontSize=8;" parent="1" edge="1">
          <mxGeometry width="50" height="50" relative="1" as="geometry">
            <mxPoint x="240" y="159.71" as="sourcePoint" />
            <mxPoint x="540" y="159.71" as="targetPoint" />
          </mxGeometry>
        </mxCell>
        <mxCell id="68" value="" style="endArrow=none;html=1;rounded=0;strokeWidth=2;startArrow=none;startFill=0;strokeColor=default;fontFamily=Comic Sans MS;fontSize=8;" parent="1" edge="1">
          <mxGeometry width="50" height="50" relative="1" as="geometry">
            <mxPoint x="240" y="200" as="sourcePoint" />
            <mxPoint x="540" y="200" as="targetPoint" />
          </mxGeometry>
        </mxCell>
        <mxCell id="69" value="" style="endArrow=none;html=1;rounded=0;strokeWidth=2;startArrow=none;startFill=0;strokeColor=default;fontFamily=Comic Sans MS;fontSize=8;" parent="1" edge="1">
          <mxGeometry width="50" height="50" relative="1" as="geometry">
            <mxPoint x="240" y="240" as="sourcePoint" />
            <mxPoint x="540" y="240" as="targetPoint" />
          </mxGeometry>
        </mxCell>
        <mxCell id="71" value="" style="endArrow=classic;html=1;rounded=0;fillColor=#dae8fc;strokeColor=default;startArrow=none;startFill=0;fontFamily=Comic Sans MS;fontSize=8;" parent="1" edge="1">
          <mxGeometry width="50" height="50" relative="1" as="geometry">
            <mxPoint x="240" y="121" as="sourcePoint" />
            <mxPoint x="340" y="161" as="targetPoint" />
          </mxGeometry>
        </mxCell>
        <mxCell id="72" value="" style="endArrow=classic;html=1;rounded=0;fillColor=#dae8fc;strokeColor=default;startArrow=none;startFill=0;fontFamily=Comic Sans MS;fontSize=8;" parent="1" edge="1">
          <mxGeometry width="50" height="50" relative="1" as="geometry">
            <mxPoint x="240" y="120" as="sourcePoint" />
            <mxPoint x="340" y="200" as="targetPoint" />
          </mxGeometry>
        </mxCell>
        <mxCell id="73" value="" style="endArrow=classic;html=1;rounded=0;fillColor=#dae8fc;strokeColor=default;startArrow=none;startFill=0;fontFamily=Comic Sans MS;fontSize=8;" parent="1" edge="1">
          <mxGeometry width="50" height="50" relative="1" as="geometry">
            <mxPoint x="240" y="120" as="sourcePoint" />
            <mxPoint x="340" y="240" as="targetPoint" />
          </mxGeometry>
        </mxCell>
        <mxCell id="77" value="Propose" style="text;html=1;align=center;verticalAlign=middle;resizable=0;points=[];autosize=1;strokeColor=none;fillColor=none;fontFamily=Comic Sans MS;fontSize=11;fontStyle=1" parent="1" vertex="1">
          <mxGeometry x="266" y="83" width="58" height="25" as="geometry" />
        </mxCell>
        <mxCell id="78" value="Prepare" style="text;html=1;align=center;verticalAlign=middle;resizable=0;points=[];autosize=1;strokeColor=none;fillColor=none;fontFamily=Comic Sans MS;fontSize=11;fontStyle=1" parent="1" vertex="1">
          <mxGeometry x="361" y="83" width="58" height="25" as="geometry" />
        </mxCell>
        <mxCell id="79" value="Commit" style="text;html=1;align=center;verticalAlign=middle;resizable=0;points=[];autosize=1;strokeColor=none;fillColor=none;fontFamily=Comic Sans MS;fontSize=11;fontStyle=1" parent="1" vertex="1">
          <mxGeometry x="452" y="83" width="56" height="25" as="geometry" />
        </mxCell>
        <mxCell id="82" value="" style="endArrow=classic;html=1;rounded=0;fillColor=#dae8fc;strokeColor=default;startArrow=none;startFill=0;fontFamily=Comic Sans MS;fontSize=8;" parent="1" edge="1">
          <mxGeometry width="50" height="50" relative="1" as="geometry">
            <mxPoint x="340" y="160" as="sourcePoint" />
            <mxPoint x="440" y="120" as="targetPoint" />
          </mxGeometry>
        </mxCell>
        <mxCell id="83" value="" style="endArrow=classic;html=1;rounded=0;fillColor=#dae8fc;strokeColor=default;startArrow=none;startFill=0;fontFamily=Comic Sans MS;fontSize=8;" parent="1" edge="1">
          <mxGeometry width="50" height="50" relative="1" as="geometry">
            <mxPoint x="340" y="160" as="sourcePoint" />
            <mxPoint x="440" y="240" as="targetPoint" />
          </mxGeometry>
        </mxCell>
        <mxCell id="84" value="" style="endArrow=classic;html=1;rounded=0;fillColor=#dae8fc;strokeColor=default;startArrow=none;startFill=0;fontFamily=Comic Sans MS;fontSize=8;" parent="1" edge="1">
          <mxGeometry width="50" height="50" relative="1" as="geometry">
            <mxPoint x="340" y="240" as="sourcePoint" />
            <mxPoint x="440" y="200" as="targetPoint" />
          </mxGeometry>
        </mxCell>
        <mxCell id="85" value="" style="endArrow=classic;html=1;rounded=0;fillColor=#dae8fc;strokeColor=default;startArrow=none;startFill=0;fontFamily=Comic Sans MS;fontSize=8;" parent="1" edge="1">
          <mxGeometry width="50" height="50" relative="1" as="geometry">
            <mxPoint x="340" y="240" as="sourcePoint" />
            <mxPoint x="440" y="120" as="targetPoint" />
          </mxGeometry>
        </mxCell>
        <mxCell id="86" value="" style="endArrow=classic;html=1;rounded=0;fillColor=#dae8fc;strokeColor=default;startArrow=none;startFill=0;fontFamily=Comic Sans MS;fontSize=8;" parent="1" edge="1">
          <mxGeometry width="50" height="50" relative="1" as="geometry">
            <mxPoint x="340" y="200" as="sourcePoint" />
            <mxPoint x="440" y="160" as="targetPoint" />
          </mxGeometry>
        </mxCell>
        <mxCell id="87" value="" style="endArrow=classic;html=1;rounded=0;fillColor=#dae8fc;strokeColor=default;startArrow=none;startFill=0;fontFamily=Comic Sans MS;fontSize=8;" parent="1" edge="1">
          <mxGeometry width="50" height="50" relative="1" as="geometry">
            <mxPoint x="340" y="200" as="sourcePoint" />
            <mxPoint x="440" y="240" as="targetPoint" />
          </mxGeometry>
        </mxCell>
        <mxCell id="88" value="" style="endArrow=classic;html=1;rounded=0;fillColor=#dae8fc;strokeColor=default;startArrow=none;startFill=0;fontFamily=Comic Sans MS;fontSize=8;" parent="1" edge="1">
          <mxGeometry width="50" height="50" relative="1" as="geometry">
            <mxPoint x="440" y="120" as="sourcePoint" />
            <mxPoint x="540" y="240" as="targetPoint" />
          </mxGeometry>
        </mxCell>
        <mxCell id="89" value="" style="endArrow=classic;html=1;rounded=0;fillColor=#dae8fc;strokeColor=default;startArrow=none;startFill=0;fontFamily=Comic Sans MS;fontSize=8;" parent="1" edge="1">
          <mxGeometry width="50" height="50" relative="1" as="geometry">
            <mxPoint x="440" y="120" as="sourcePoint" />
            <mxPoint x="540" y="201" as="targetPoint" />
          </mxGeometry>
        </mxCell>
        <mxCell id="90" value="" style="endArrow=classic;html=1;rounded=0;fillColor=#dae8fc;strokeColor=default;startArrow=none;startFill=0;fontFamily=Comic Sans MS;fontSize=8;" parent="1" edge="1">
          <mxGeometry width="50" height="50" relative="1" as="geometry">
            <mxPoint x="440" y="160" as="sourcePoint" />
            <mxPoint x="540" y="120" as="targetPoint" />
          </mxGeometry>
        </mxCell>
        <mxCell id="91" value="" style="endArrow=classic;html=1;rounded=0;fillColor=#dae8fc;strokeColor=default;startArrow=none;startFill=0;fontFamily=Comic Sans MS;fontSize=8;" parent="1" edge="1">
          <mxGeometry width="50" height="50" relative="1" as="geometry">
            <mxPoint x="440" y="160" as="sourcePoint" />
            <mxPoint x="540" y="200" as="targetPoint" />
          </mxGeometry>
        </mxCell>
        <mxCell id="92" value="" style="endArrow=classic;html=1;rounded=0;fillColor=#dae8fc;strokeColor=default;startArrow=none;startFill=0;fontFamily=Comic Sans MS;fontSize=8;" parent="1" edge="1">
          <mxGeometry width="50" height="50" relative="1" as="geometry">
            <mxPoint x="440" y="200" as="sourcePoint" />
            <mxPoint x="540" y="120" as="targetPoint" />
          </mxGeometry>
        </mxCell>
        <mxCell id="93" value="" style="endArrow=classic;html=1;rounded=0;fillColor=#dae8fc;strokeColor=default;startArrow=none;startFill=0;fontFamily=Comic Sans MS;fontSize=8;" parent="1" edge="1">
          <mxGeometry width="50" height="50" relative="1" as="geometry">
            <mxPoint x="440" y="200" as="sourcePoint" />
            <mxPoint x="540" y="240" as="targetPoint" />
          </mxGeometry>
        </mxCell>
        <mxCell id="94" value="" style="endArrow=classic;html=1;rounded=0;fillColor=#dae8fc;strokeColor=default;startArrow=none;startFill=0;fontFamily=Comic Sans MS;fontSize=8;" parent="1" edge="1">
          <mxGeometry width="50" height="50" relative="1" as="geometry">
            <mxPoint x="440" y="240" as="sourcePoint" />
            <mxPoint x="540" y="160" as="targetPoint" />
          </mxGeometry>
        </mxCell>
        <mxCell id="95" value="" style="endArrow=classic;html=1;rounded=0;fillColor=#dae8fc;strokeColor=default;startArrow=none;startFill=0;fontFamily=Comic Sans MS;fontSize=8;" parent="1" edge="1">
          <mxGeometry width="50" height="50" relative="1" as="geometry">
            <mxPoint x="440" y="240" as="sourcePoint" />
            <mxPoint x="540" y="120" as="targetPoint" />
          </mxGeometry>
        </mxCell>
      </root>
    </mxGraphModel>
  </diagram>
</mxfile>
